<svg width="500" height="500" viewBox="0 0 500 500" fill="none" xmlns="http://www.w3.org/2000/svg">
<path fill-rule="evenodd" clip-rule="evenodd" d="M98.0125 192.486C98.8208 143.479 138.8 104 188 104C196.67 104 205.054 105.226 212.988 107.514C212.179 156.521 172.2 196 123 196C114.33 196 105.946 194.774 98.0125 192.486Z" fill="#F2C798"/>
<path fill-rule="evenodd" clip-rule="evenodd" d="M173.456 180.537C197.32 164.352 213 137.007 213 106C213 94.1461 210.708 82.8274 206.544 72.4629C182.68 88.6483 167 115.993 167 147C167 158.854 169.292 170.173 173.456 180.537Z" fill="#F2C798"/>
<path fill-rule="evenodd" clip-rule="evenodd" d="M182.701 185.029C140.119 201.881 110 243.423 110 292C110 325.688 124.486 355.993 147.568 377.026C148.965 370.658 153.417 363.01 160.213 356.213C167.666 348.76 176.143 344.127 182.833 343.25C173.022 322.622 167 294.718 167 264C167 233.42 172.968 205.628 182.701 185.029Z" fill="#F2C798"/>
<path fill-rule="evenodd" clip-rule="evenodd" d="M357.015 228.766L429.974 198.927C406.053 159.977 363.06 134 314 134C238.889 134 178 194.889 178 270C178 293.099 183.759 314.854 193.919 333.906C188.193 321.456 185 307.601 185 293C185 238.876 228.876 195 283 195C312.551 195 339.047 208.08 357.015 228.766Z" fill="#F2C798"/>
<path d="M345.954 151C400.078 151 443.954 194.876 443.954 249C443.954 303.124 400.078 347 345.954 347C296.71 347 255.951 310.679 249.001 263.365C257.703 270.441 269.1 275.951 282.107 278.716C314.777 285.66 345.217 272.678 350.098 249.719C354.978 226.76 332.45 202.517 299.78 195.573C286.837 192.822 274.244 193.201 263.451 196.087C280.881 168.966 311.32 151 345.954 151Z" fill="#F2C798"/>
<path fill-rule="evenodd" clip-rule="evenodd" d="M156.594 408.271C177.336 404.706 193 388.479 193 369C193 361.941 190.943 355.309 187.332 349.552C176.838 351.565 166.701 358.263 160.029 368.736C151.862 381.556 151.016 396.693 156.594 408.271Z" fill="#F2C798"/>
<path fill-rule="evenodd" clip-rule="evenodd" d="M86.4635 409.727C93.7208 399.599 105.59 393 119 393C132.41 393 144.279 399.599 151.537 409.727C144.279 413.525 132.41 416 119 416C105.59 416 93.7208 413.525 86.4635 409.727Z" fill="#F2C798"/>
</svg>
